<svg xmlns="http://www.w3.org/2000/svg" viewBox="0 0 860 460" width="860" height="460" role="img" aria-labelledby="title desc">
  <title id="title">How I ship</title>
  <desc id="desc">Isometric deploy pipeline: code (git push) to CI (test, lint) to build (Docker) to infra (Terraform) to prod, with packets moving along a conveyor.</desc>
  <style>
    text { font-family: ui-monospace, SFMono-Regular, 'SF Mono', Menlo, Consolas, 'Liberation Mono', monospace; font-size: 13px; fill: #E6EDF3; }
    .dim { fill: #8B949E; } .ok { fill: #3FB950; } .acc { fill: #58A6FF; }
    .nm { font-size: 14px; font-weight: 700; }
    .cmd { font-size: 15px; }
    .bar { font-size: 13px; fill: #8B949E; }
    .pkt { animation: flow 7.2s linear infinite; }
    .led { animation: blink 1.4s steps(1) infinite; }
    .ping { transform-box: fill-box; transform-origin: center; animation: ping 2.4s ease-out infinite; }
    @keyframes flow {
      0% { transform: translate(0, 0); opacity: 0; }
      6%, 94% { opacity: 1; }
      50% { transform: translate(320.4px, 185.0px); }
      100% { transform: translate(640.9px, 0); opacity: 0; }
    }
    @keyframes blink { 50% { opacity: .25; } }
    @keyframes ping { from { transform: scale(.7); opacity: .8; } to { transform: scale(1.7); opacity: 0; } }
    @media (prefers-reduced-motion: reduce) {
      .pkt, .ping { display: none; }
      * { animation: none !important; }
    }
  </style>
  <defs>
    <clipPath id="card"><rect width="860" height="460" rx="12"/></clipPath>
    <radialGradient id="sphere" cx="38%" cy="32%" r="75%">
      <stop offset="0" stop-color="#FFC08A"/><stop offset=".55" stop-color="#F0883E"/><stop offset="1" stop-color="#7A3A0E"/>
    </radialGradient>
    <radialGradient id="glow" cx="430" cy="275" r="420" gradientUnits="userSpaceOnUse">
      <stop offset="0" stop-color="#BC8CFF" stop-opacity=".12"/><stop offset="1" stop-color="#BC8CFF" stop-opacity="0"/>
    </radialGradient>
  </defs>
  <g clip-path="url(#card)">
    <rect width="860" height="460" fill="#0D1117"/>
    <rect width="860" height="460" fill="url(#glow)"/>
    <rect width="860" height="36" fill="#161B22"/>
    <rect y="36" width="860" height="1" fill="#30363D"/>
  </g>
  <rect x=".5" y=".5" width="859" height="459" rx="11.5" fill="none" stroke="#30363D"/>
  <circle cx="22" cy="18" r="6" fill="#FF5F57"/><circle cx="42" cy="18" r="6" fill="#FEBC2E"/><circle cx="62" cy="18" r="6" fill="#28C840"/>
  <text class="bar" x="430" y="23" text-anchor="middle">pipeline · main</text>
  <text x="28" y="68" class="cmd"><tspan class="ok">$</tspan> git push origin main</text>
  <text x="832" y="68" text-anchor="end" class="dim">commit → prod, fully automated</text>
  <g stroke="#30363D" stroke-linejoin="round"><polygon points="750.9,189.0 782.0,207.0 461.6,392.0 430.4,374.0" fill="#21262D"/><polygon points="782.0,215.0 461.6,400.0 461.6,392.0 782.0,207.0" fill="#161B22"/><polygon points="110.0,189.0 461.6,392.0 430.4,410.0 78.8,207.0" fill="#21262D"/><polygon points="78.8,215.0 430.4,418.0 430.4,410.0 78.8,207.0" fill="#161B22"/><polygon points="461.6,400.0 430.4,418.0 430.4,410.0 461.6,392.0" fill="#161B22"/></g><polyline points="110.0,207.0 430.4,392.0 750.9,207.0" fill="none" stroke="#484F58" stroke-dasharray="4 7"/><g class="pkt" style="animation-delay:0s"><g stroke="#E6EDF3" stroke-opacity=".55" stroke-linejoin="round"><polygon points="110.0,189.0 120.4,195.0 110.0,201.0 99.6,195.0" fill="#DBE2E8"/><polygon points="99.6,207.0 110.0,213.0 110.0,201.0 99.6,195.0" fill="#8F959B"/><polygon points="120.4,207.0 110.0,213.0 110.0,201.0 120.4,195.0" fill="#5F656B"/></g></g><g class="pkt" style="animation-delay:-2.4s"><g stroke="#E6EDF3" stroke-opacity=".55" stroke-linejoin="round"><polygon points="110.0,189.0 120.4,195.0 110.0,201.0 99.6,195.0" fill="#DBE2E8"/><polygon points="99.6,207.0 110.0,213.0 110.0,201.0 99.6,195.0" fill="#8F959B"/><polygon points="120.4,207.0 110.0,213.0 110.0,201.0 120.4,195.0" fill="#5F656B"/></g></g><g class="pkt" style="animation-delay:-4.8s"><g stroke="#E6EDF3" stroke-opacity=".55" stroke-linejoin="round"><polygon points="110.0,189.0 120.4,195.0 110.0,201.0 99.6,195.0" fill="#DBE2E8"/><polygon points="99.6,207.0 110.0,213.0 110.0,201.0 99.6,195.0" fill="#8F959B"/><polygon points="120.4,207.0 110.0,213.0 110.0,201.0 120.4,195.0" fill="#5F656B"/></g></g><g stroke="#58A6FF" stroke-opacity=".55" stroke-linejoin="round"><polygon points="103.1,175.0 155.0,205.0 116.9,227.0 65.0,197.0" fill="#549FF3"/><polygon points="65.0,203.0 116.9,233.0 116.9,227.0 65.0,197.0" fill="#3A6AA2"/><polygon points="155.0,211.0 116.9,233.0 116.9,227.0 155.0,205.0" fill="#2A4A6F"/></g><g stroke="#58A6FF" stroke-opacity=".55" stroke-linejoin="round"><polygon points="103.1,135.0 155.0,165.0 151.6,167.0 99.6,137.0" fill="#549FF3"/><polygon points="99.6,177.0 151.6,207.0 151.6,167.0 99.6,137.0" fill="#3A6AA2"/><polygon points="155.0,205.0 151.6,207.0 151.6,167.0 155.0,165.0" fill="#2A4A6F"/></g><polygon points="103.0,175.1 148.0,201.1 148.0,169.1 103.0,143.1" fill="#0D1117"/><line x1="106.4" y1="151.1" x2="132.3" y2="166.1" stroke="#58A6FF" stroke-width="2" stroke-linecap="round"/><line x1="111.6" y1="160.1" x2="139.3" y2="176.1" stroke="#3FB950" stroke-width="2" stroke-linecap="round"/><line x1="111.6" y1="166.1" x2="127.1" y2="175.1" stroke="#8B949E" stroke-width="2" stroke-linecap="round"/><line x1="106.4" y1="169.1" x2="135.8" y2="186.1" stroke="#58A6FF" stroke-width="2" stroke-linecap="round"/><text x="103.1" y="113.0" text-anchor="middle" class="nm" style="fill:#58A6FF">code</text><text x="103.1" y="129.0" text-anchor="middle" class="dim">git push</text><g stroke="#F0883E" stroke-opacity=".55" stroke-linejoin="round"><polygon points="750.9,173.0 792.4,197.0 750.9,221.0 709.3,197.0" fill="#E5823C"/><polygon points="709.3,207.0 750.9,231.0 750.9,221.0 709.3,197.0" fill="#95582E"/><polygon points="792.4,207.0 750.9,231.0 750.9,221.0 792.4,197.0" fill="#633E26"/></g><ellipse class="ping" cx="750.9" cy="197.0" rx="36.7" ry="21.2" fill="none" stroke="#F0883E" stroke-width="1.5"/><circle cx="750.9" cy="167.0" r="30" fill="url(#sphere)"/><g fill="none" stroke="#FFD8B5" stroke-opacity=".55"><ellipse cx="750.9" cy="167.0" rx="30" ry="10"/><ellipse cx="750.9" cy="167.0" rx="12" ry="30"/><ellipse cx="750.9" cy="153.0" rx="22" ry="6"/></g><text x="750.9" y="107.0" text-anchor="middle" class="nm" style="fill:#F0883E">prod</text><text x="750.9" y="123.0" text-anchor="middle" class="dim">real users</text><g stroke="#3FB950" stroke-opacity=".55" stroke-linejoin="round"><polygon points="270.2,227.5 318.7,255.5 270.2,283.5 221.7,255.5" fill="#3CB14D"/><polygon points="221.7,299.5 270.2,327.5 270.2,283.5 221.7,255.5" fill="#2B7639"/><polygon points="318.7,299.5 270.2,327.5 270.2,283.5 318.7,255.5" fill="#20512D"/></g><polyline points="251.8,255.3 264.1,262.4 288.6,248.2" fill="none" stroke="#F0FFF4" stroke-width="5" stroke-linecap="round" stroke-linejoin="round"/><text x="270.2" y="205.5" text-anchor="middle" class="nm" style="fill:#3FB950">ci</text><text x="270.2" y="221.5" text-anchor="middle" class="dim">test · lint</text><g stroke="#BC8CFF" stroke-opacity=".55" stroke-linejoin="round"><polygon points="590.6,175.5 632.2,199.5 590.6,223.5 549.1,199.5" fill="#B386F3"/><polygon points="549.1,299.5 590.6,323.5 590.6,223.5 549.1,199.5" fill="#765BA2"/><polygon points="632.2,299.5 590.6,323.5 590.6,223.5 632.2,199.5" fill="#50406F"/></g><line x1="554.1" y1="280.6" x2="585.3" y2="298.6" stroke="#393051" stroke-width="2" stroke-linecap="round"/><line x1="621.1" y1="284.1" x2="596.0" y2="298.6" stroke="#302A45" stroke-width="2" stroke-linecap="round"/><circle class="led" style="animation-delay:0.00s" cx="627.2" cy="280.6" r="2.2" fill="#3FB950"/><line x1="554.1" y1="260.6" x2="585.3" y2="278.6" stroke="#393051" stroke-width="2" stroke-linecap="round"/><line x1="621.1" y1="264.1" x2="596.0" y2="278.6" stroke="#302A45" stroke-width="2" stroke-linecap="round"/><circle class="led" style="animation-delay:0.35s" cx="627.2" cy="260.6" r="2.2" fill="#3FB950"/><line x1="554.1" y1="240.6" x2="585.3" y2="258.6" stroke="#393051" stroke-width="2" stroke-linecap="round"/><line x1="621.1" y1="244.1" x2="596.0" y2="258.6" stroke="#302A45" stroke-width="2" stroke-linecap="round"/><circle class="led" style="animation-delay:0.70s" cx="627.2" cy="240.6" r="2.2" fill="#3FB950"/><line x1="554.1" y1="220.6" x2="585.3" y2="238.6" stroke="#393051" stroke-width="2" stroke-linecap="round"/><line x1="621.1" y1="224.1" x2="596.0" y2="238.6" stroke="#302A45" stroke-width="2" stroke-linecap="round"/><circle class="led" style="animation-delay:1.05s" cx="627.2" cy="220.6" r="2.2" fill="#3FB950"/><text x="590.6" y="153.5" text-anchor="middle" class="nm" style="fill:#BC8CFF">infra</text><text x="590.6" y="169.5" text-anchor="middle" class="dim">terraform</text><g stroke="#56D4DD" stroke-opacity=".55" stroke-linejoin="round"><polygon points="430.4,342.0 478.9,370.0 454.7,384.0 406.2,356.0" fill="#52CAD3"/><polygon points="406.2,378.0 454.7,406.0 454.7,384.0 406.2,356.0" fill="#39868E"/><polygon points="478.9,392.0 454.7,406.0 454.7,384.0 478.9,370.0" fill="#295B62"/></g><line x1="412.9" y1="378.1" x2="412.9" y2="364.1" stroke="#234C52" stroke-width="1.5" stroke-linecap="round"/><line x1="419.9" y1="382.1" x2="419.9" y2="368.1" stroke="#234C52" stroke-width="1.5" stroke-linecap="round"/><line x1="426.8" y1="386.1" x2="426.8" y2="372.1" stroke="#234C52" stroke-width="1.5" stroke-linecap="round"/><line x1="433.7" y1="390.1" x2="433.7" y2="376.1" stroke="#234C52" stroke-width="1.5" stroke-linecap="round"/><line x1="440.6" y1="394.1" x2="440.6" y2="380.1" stroke="#234C52" stroke-width="1.5" stroke-linecap="round"/><line x1="447.6" y1="398.1" x2="447.6" y2="384.1" stroke="#234C52" stroke-width="1.5" stroke-linecap="round"/><line x1="473.0" y1="391.6" x2="473.0" y2="377.6" stroke="#234C52" stroke-width="1.5" stroke-linecap="round"/><line x1="467.0" y1="395.1" x2="467.0" y2="381.1" stroke="#234C52" stroke-width="1.5" stroke-linecap="round"/><line x1="460.9" y1="398.6" x2="460.9" y2="384.6" stroke="#234C52" stroke-width="1.5" stroke-linecap="round"/><g stroke="#56D4DD" stroke-opacity=".55" stroke-linejoin="round"><polygon points="406.2,356.0 454.7,384.0 430.4,398.0 381.9,370.0" fill="#52CAD3"/><polygon points="381.9,392.0 430.4,420.0 430.4,398.0 381.9,370.0" fill="#39868E"/><polygon points="454.7,406.0 430.4,420.0 430.4,398.0 454.7,384.0" fill="#295B62"/></g><line x1="388.7" y1="392.1" x2="388.7" y2="378.1" stroke="#234C52" stroke-width="1.5" stroke-linecap="round"/><line x1="395.6" y1="396.1" x2="395.6" y2="382.1" stroke="#234C52" stroke-width="1.5" stroke-linecap="round"/><line x1="402.5" y1="400.1" x2="402.5" y2="386.1" stroke="#234C52" stroke-width="1.5" stroke-linecap="round"/><line x1="409.5" y1="404.1" x2="409.5" y2="390.1" stroke="#234C52" stroke-width="1.5" stroke-linecap="round"/><line x1="416.4" y1="408.1" x2="416.4" y2="394.1" stroke="#234C52" stroke-width="1.5" stroke-linecap="round"/><line x1="423.3" y1="412.1" x2="423.3" y2="398.1" stroke="#234C52" stroke-width="1.5" stroke-linecap="round"/><line x1="448.8" y1="405.6" x2="448.8" y2="391.6" stroke="#234C52" stroke-width="1.5" stroke-linecap="round"/><line x1="442.7" y1="409.1" x2="442.7" y2="395.1" stroke="#234C52" stroke-width="1.5" stroke-linecap="round"/><line x1="436.7" y1="412.6" x2="436.7" y2="398.6" stroke="#234C52" stroke-width="1.5" stroke-linecap="round"/><g stroke="#56D4DD" stroke-opacity=".55" stroke-linejoin="round"><polygon points="423.5,332.0 461.6,354.0 437.4,368.0 399.3,346.0" fill="#52CAD3"/><polygon points="399.3,366.0 437.4,388.0 437.4,368.0 399.3,346.0" fill="#39868E"/><polygon points="461.6,374.0 437.4,388.0 437.4,368.0 461.6,354.0" fill="#295B62"/></g><line x1="406.0" y1="366.1" x2="406.0" y2="354.1" stroke="#234C52" stroke-width="1.5" stroke-linecap="round"/><line x1="412.9" y1="370.1" x2="412.9" y2="358.1" stroke="#234C52" stroke-width="1.5" stroke-linecap="round"/><line x1="419.9" y1="374.1" x2="419.9" y2="362.1" stroke="#234C52" stroke-width="1.5" stroke-linecap="round"/><line x1="426.8" y1="378.1" x2="426.8" y2="366.1" stroke="#234C52" stroke-width="1.5" stroke-linecap="round"/><line x1="455.7" y1="373.6" x2="455.7" y2="361.6" stroke="#234C52" stroke-width="1.5" stroke-linecap="round"/><line x1="449.7" y1="377.1" x2="449.7" y2="365.1" stroke="#234C52" stroke-width="1.5" stroke-linecap="round"/><line x1="443.6" y1="380.6" x2="443.6" y2="368.6" stroke="#234C52" stroke-width="1.5" stroke-linecap="round"/><text x="423.5" y="310.0" text-anchor="middle" class="nm" style="fill:#56D4DD">build</text><text x="423.5" y="326.0" text-anchor="middle" class="dim">docker</text>
  <text x="28" y="438"><tspan class="ok">●</tspan> all checks passed <tspan class="dim">· shipped to prod</tspan></text>
</svg>
